<svg id="Layer_1" data-name="Layer 1" xmlns="http://www.w3.org/2000/svg" viewBox="0 0 515 250"><defs><style>.cls-1{fill:#99012d;}.cls-2{fill:#6b2d3f;}.cls-3{fill:#f3d19f;}.cls-4{fill:#fcf4e8;}.cls-5{fill:#fbf4e8;}.cls-6{fill:#fcf4e1;}</style></defs><title>Artboard 1</title><g id="Shield_Logo_CMYK" data-name="Shield Logo CMYK"><path class="cls-1" d="M21.36,114.24c0,62,103.8,112.2,231.85,112.2s231.84-50.25,231.84-112.2S381.25,2,253.21,2,21.36,52.27,21.36,114.24Z"/><path class="cls-2" d="M253.21,227.3C124.9,227.3,20.5,176.58,20.5,114.24S124.9,1.17,253.21,1.17s232.7,50.72,232.7,113.07S381.52,227.3,253.21,227.3Zm0-224.41c-127.36,0-231,50-231,111.35s103.63,111.34,231,111.34,231-50,231-111.34S380.58,2.89,253.21,2.89Z"/><path class="cls-3" d="M94.49,45.68h0C74.94,55.14,59.07,66.47,48.61,78.44,38.48,90,33.35,102.07,33.35,114.24s5.13,24.2,15.26,35.78c10.46,12,26.33,23.3,45.88,32.77,42.2,20.43,98.56,31.66,158.72,31.66s116.53-11.23,158.7-31.66c19.56-9.48,35.44-20.8,45.91-32.77,10.12-11.58,15.24-23.63,15.24-35.78S467.94,90,457.82,78.44c-10.47-12-26.35-23.3-45.91-32.76C369.74,25.26,313.36,14,253.21,14S136.69,25.26,94.49,45.68Zm.76,135.52c-19.34-9.36-35-20.54-45.32-32.34C40.09,137.61,35.1,126,35.1,114.24s5-23.38,14.83-34.64c10.31-11.8,26-23,45.32-32.34h0c42-20.31,98.07-31.49,158-31.49S369.19,27,411.15,47.26c19.35,9.36,35,20.54,45.32,32.34,9.85,11.26,14.84,22.91,14.84,34.64s-5,23.37-14.84,34.62c-10.3,11.8-26,23-45.32,32.34-42,20.31-98,31.5-157.94,31.5S137.21,201.51,95.25,181.2Z"/><path class="cls-3" d="M92.11,40.76h0c-20.5,9.92-36.52,21.39-47.62,34.08s-16.61,25.87-16.61,39.4S33.47,141,44.49,153.62s27.12,24.17,47.62,34.08c42.92,20.77,100.13,32.24,161.1,32.24s118.18-11.47,161.1-32.24c20.49-9.91,36.51-21.38,47.61-34.08s16.63-25.86,16.63-39.38-5.61-26.79-16.63-39.4S434.8,50.68,414.31,40.76C371.39,20,314.18,8.54,253.21,8.54S135,20,92.11,40.76Zm1.28,144.3c-20.15-9.75-35.85-21-46.69-33.37C36.16,139.63,30.82,127,30.82,114.24s5.34-25.4,15.88-37.46C57.54,64.38,73.25,53.15,93.39,43.4h0c42.53-20.58,99.29-31.92,159.82-31.92S370.48,22.82,413,43.4c20.15,9.75,35.84,21,46.68,33.38,10.55,12.06,15.9,24.66,15.9,37.46s-5.35,25.39-15.9,37.45c-10.84,12.4-26.53,23.62-46.68,33.37C370.48,205.65,313.73,217,253.21,217S135.92,205.65,93.39,185.06Z"/><path class="cls-2" d="M451.8,64.2c-4.64,9.25-11.11,13.49-12.6,14.35-1.89,1.11-4.58.66-5.15-.65.27,1.37,3.74,3.13,7.06,1.79,1.26-.52,7.84-3.75,12.51-13,1.67-3.3-.35-6.83-2.27-8.75A5.49,5.49,0,0,1,451.8,64.2Z"/><path class="cls-3" d="M54.5,34.51a1.4,1.4,0,0,0-.33-.31s0,0,0,.06A1.79,1.79,0,0,1,54.5,34.51Z"/><path class="cls-3" d="M455.19,75.11c-3,2.87-12,11.63-18.39,17.67-4.81,4.82-14.42,14.07-23.69,18.39-3.94,1.83-7.83,2.77-11.24,2.1a8.1,8.1,0,0,1-5.54-3.34,6.07,6.07,0,0,0,.32.6c1.18,1.65,3.4,3.37,7.47,4.3,11.44,2.61,28.09-13.63,34.94-20.49C444.15,89.52,450.92,83,455,79.08V79A11.23,11.23,0,0,1,455.19,75.11Z"/><path class="cls-3" d="M408.52,67.86c1.47,1,.82,3.36-.74,5.65-1.67,2.49-2.83,4-5.19,6.95,0,1,.88,1.4,2.36,1.42,2.3-2.85,3-3.74,4.42-5.75,2-2.95,2.21-6.54-.29-8.07l-.36-.15A.42.42,0,0,0,408.52,67.86Z"/><path class="cls-3" d="M176.66,108c-1.09,2.81-1.85,4.53-3.5,8,.19.92,1.15,1.15,2.6.85,1.42-3,2.16-4.63,3.17-7.25a5.68,5.68,0,0,0-2.2-7l-.27-.09C177.74,103.39,177.58,105.66,176.66,108Z"/><path class="cls-3" d="M458.79,94.66c0-.19-.08-.39-.13-.6-.1-.36-.19-.73-.28-1.1-4.45.22-12.82,1.73-17.77,5.56a9.16,9.16,0,0,0-4,6.58c-.14,1.86,1.2,3.65,3.6,4.76a4,4,0,0,1-1.34-3.2C439.5,98.63,451.77,95.41,458.79,94.66Z"/><path class="cls-3" d="M430.17,74.63a8.42,8.42,0,0,0-1.11-.8.48.48,0,0,1,.07.71c-.54.6-7.84,7.21-13.12,13.51-.74.9-1.46,1.78-2.12,2.65a27.88,27.88,0,0,0-2.45,3.82c-3.6,7.1-4.83,13.82-1.61,14.24a3.11,3.11,0,0,0,.62,0c-.77-2.45.6-7.46,3.27-12.71C417.31,89,429.34,77.7,430.19,77A1.48,1.48,0,0,0,430.17,74.63Z"/><path class="cls-3" d="M372.23,80a9.21,9.21,0,0,0-1.28-.94c3.44,3.19,1.19,9.29-4.07,15a43.3,43.3,0,0,1-20.19,12.32c-.54.13-1.11.27-1.68.38a1,1,0,0,1-.71-.05.63.63,0,0,1-.2-.17,1.07,1.07,0,0,1-.17-.43,2.64,2.64,0,0,1,.1-1.34.7.7,0,0,1,.43-.36v0c.7-6.51,7.54-20.65,16.35-21.65a2.81,2.81,0,0,1,1,.06,3.73,3.73,0,0,0-3.3-1.62c-8.81,1-15.65,15.14-16.35,21.65-.8,7.54,1,11.45,4.35,12.77-1.33-1.46-2.14-3.74-2.26-7a5.86,5.86,0,0,0,.73,0c.52,0,1.1-.1,1.55-.16l.69-.1C364.23,105.26,378.54,87.25,372.23,80Z"/><path class="cls-3" d="M199.38,104.05a2.69,2.69,0,0,0-.58-.34c-.59-.18-1.07-.24-1.16-.13l-.06.06c.22.16.3.36.11.59-2.56,3.13-6,9.22-8.93,15.61q-.45,1-.87,2c-4.21,9.84-6.65,19.72-1.86,20.09-2.6-6,7.73-27,12.32-34C200.28,105,200.09,104.6,199.38,104.05Z"/><path class="cls-3" d="M508,110.47c-.7-4.25-3.52-7.89-7-10.69-.52-.36-1-.7-1.59-1a16.23,16.23,0,0,1,6.35,10.17A18.09,18.09,0,0,1,503.64,121c-6.86,12.08-26.71,17.57-35.77,17.92-1.11,0-2.09,0-3,0-5.65-.1-7.7-1.2-7.7-1.2a1.71,1.71,0,0,1-.2-.84.73.73,0,0,0-.15.16c-.2.68.36,1.82,1.93,2.35,3.06,1.06,6.86,1.2,11.36,1.07C481.81,140.16,511.44,131.09,508,110.47Z"/><path class="cls-3" d="M284.14,125.94c-5.4,2.77-10.81,4.31-15.56,3.89a9.21,9.21,0,0,1-2.54-.69,12.2,12.2,0,0,1-2.64-1.56,13.79,13.79,0,0,0,5.22,3.26,10.08,10.08,0,0,0,2.22.55c9.88.86,22.61-6.68,31.94-16.23.07-.43.15-.86.25-1.31a32.24,32.24,0,0,1,1.48-4.71A67.06,67.06,0,0,1,284.14,125.94Z"/><path class="cls-3" d="M247.64,77.61c33.34-8.38,66.8-14.15,88.63-14.81.45-.54.93-1.09,1.38-1.62-21.65.06-57.23,5.25-92.28,14.87-1.12.31-2.38-.8-1.75-1.83a1.59,1.59,0,0,0-.49.39C242.27,76.14,244.16,78.48,247.64,77.61Z"/><path class="cls-3" d="M241.57,98.26c-10.41-1.15-27.94,20.25-26.75,30.52.23,2,1,4.37,3.42,5a7.31,7.31,0,0,1-1.16-3.42c-1.19-10.28,14.69-29.83,24.74-30.44,2.37-.14,3.54-3.17,2-4.56a5.11,5.11,0,0,0-.47-.2C244.45,96.19,242.79,98.39,241.57,98.26Z"/><path class="cls-3" d="M253.41,97.85C244.25,108.3,241.63,118.4,241,123.6c-.52,4.73.69,6.64,2.7,6.79-.52-1.06-.7-2.76-.43-5.23.59-5.21,4.52-17.7,12.07-25.37,1.05-1.08-.15-3.05-1.92-4l-.46-.15C253.86,96.2,254.17,97.17,253.41,97.85Z"/><path class="cls-3" d="M260.49,124.2a11.79,11.79,0,0,1-1.15-2.84,36,36,0,0,1-11.33,12,23.65,23.65,0,0,1-9.15,3.61,9,9,0,0,1-6.69-1.25l.18.27a10.7,10.7,0,0,0,8.77,2.54c6.4-.83,14-5.66,19.51-14.11C260.58,124.39,260.54,124.29,260.49,124.2Z"/><path class="cls-3" d="M295.46,83.75l-.33-.15c4,2.78,2.33,9.38-2.48,15.87a42.82,42.82,0,0,1-18.58,14.38c-.43.16-.86.31-1.3.45s-.81.06-.9-.17c0,0,0,0,0,0a8.15,8.15,0,0,1-.17-.88,2.26,2.26,0,0,1,0-.82.54.54,0,0,1,.13-.22c-.05-6.6,5-21.32,13.62-23.36a3,3,0,0,1,1.55,0,3.89,3.89,0,0,0-3.82-1.61c-8.64,2.06-13.72,16.93-13.62,23.48.1,7,2.06,10.62,5.17,11.86a11.48,11.48,0,0,1-2.58-6.29l.84-.07c.4,0,.83-.11,1.21-.18a7.87,7.87,0,0,0,.89-.18C291.64,110.47,304.56,89.5,295.46,83.75Z"/><path class="cls-3" d="M400,88.31a5,5,0,0,1-1.06-.11,3.45,3.45,0,0,1-2.19-1.43c-.82,1-14.56,16.66-28,25.61a65.47,65.47,0,0,1-12,6.6c-6.33,2.62-12.62,3.82-17.78,2.73a9.48,9.48,0,0,1-3-1.37,18.1,18.1,0,0,0,5.54,3.14c8.52,1.78,19.76-2.79,29.48-9.54,13.47-9,27.21-24.64,28-25.61a3.78,3.78,0,0,0,3.24,1.54,22.32,22.32,0,0,0,5.47-.73c2.59-2.23,5.69-4.68,9.46-7.37C415.73,82,409.45,88.26,400,88.31Z"/><path class="cls-3" d="M230,133.2a9.87,9.87,0,0,1-.64-1.66c-.06-.58-.09-1.18-.11-1.77a30.36,30.36,0,0,1-6.12,7.18c-7.31,6.1-15,4.93-18.66.7.13.27.27.53.42.8,4.51,5.91,16.63,6.4,25.21-5.07A1,1,0,0,1,230,133.2Z"/><path class="cls-3" d="M331.38,114.54a12.33,12.33,0,0,1-.62-2.75,32.67,32.67,0,0,1-7.88,7.06,24.88,24.88,0,0,1-13.6,4.37,6,6,0,0,1-1.15-.13,7.07,7.07,0,0,1-1.43-.43,7.1,7.1,0,0,0,4.87,2.12c7.78.12,15.44-4.82,20-9.73Z"/><path class="cls-3" d="M202.55,134.2a10.14,10.14,0,0,1-.31-1.57,15.55,15.55,0,0,1-.09-2c-3.52,5.21-7.89,10.63-12.73,14.11a18.66,18.66,0,0,1-8.44,3.65c-2.65.34-6.53-.41-8.33-3.45a4.54,4.54,0,0,0,.24.59,1.55,1.55,0,0,0,.12.22c2.05,3.23,6.53,4.63,10.23,4.2,7.35-.84,14.17-8,19.45-15.29C202.64,134.47,202.59,134.34,202.55,134.2Z"/><path class="cls-3" d="M378.28,59.79a17.91,17.91,0,0,0-3.36-1.85,13.28,13.28,0,0,1,1.89,1.11,5,5,0,0,1,2.4,4.21c-.17,5.88-10.29,4.74-9.94,2.89a1,1,0,0,1,.12-.25l0,0,0,0a1.69,1.69,0,0,0-.22.35c-1.36,3.13,11.79,4.68,12.11-1.54C381.37,62.92,380.28,61.23,378.28,59.79ZM344.4,61c-.79,1.12-1.52,2.2-2.25,3.26h0a2.65,2.65,0,0,0-.21.26c-22.23,32.07-23.26,37.1-25.8,42.87-2.74,6.26,0,7.82,1.63,8.21-.73-1.19-.87-3.21.65-6.65,2.62-6,3.64-11.16,28.21-46.39,21.69-.11,23.16,2.74,22.75,3.26C370.46,64.52,366.1,60.93,344.4,61Z"/><path class="cls-3" d="M172.37,124.19a4,4,0,0,1-1.17.13,3.32,3.32,0,0,1-2.33-.88c-.3.58-5.61,8.77-12,17.57-6.72,9.24-14.65,19.16-19.26,21.66-1.08.58-4.11.9-4.37.45a.66.66,0,0,0-.22.32c0,1.14,3.38,2.64,6.86.79,9-4.83,30.65-38,31.27-39.23a3.72,3.72,0,0,0,3.49.76,22.43,22.43,0,0,0,4.68-1.68A125.22,125.22,0,0,1,187.65,114C186.32,114.56,181.59,122,172.37,124.19Z"/><path class="cls-3" d="M355.08,49.53a6.55,6.55,0,0,0-2.62-3.08,1.26,1.26,0,0,0-.28,0,1.68,1.68,0,0,1,.55.7l.22.56a2.69,2.69,0,0,1-.15,1.46l-1.7,2.39c-.7,1-1.36,1.93-2,2.87h1c.82,0,1.64,0,2.44,0C353.83,52.72,355.35,50.56,355.08,49.53Z"/><path class="cls-3" d="M451.35,58A7.1,7.1,0,0,0,450,56.83c.93.93,1.37,2.65,0,5.34-4.59,9.27-13.35,14.5-14.33,15.43a1,1,0,0,1-1.6-.15.85.85,0,0,0,0,.45c.57,1.31,3.26,1.76,5.15.65,1.49-.86,8-5.1,12.6-14.35A5.49,5.49,0,0,0,451.35,58Z"/><path class="cls-3" d="M54.5,34.51a1.4,1.4,0,0,0-.33-.31s0,0,0,.06A1.79,1.79,0,0,1,54.5,34.51Z"/><path class="cls-3" d="M54.19,34.26c.06.32-.49.89-1.87,1.51C10,54.83,12.8,77.06,13.91,85.77c1.32,10.4,8,17.54,15.44,22.32-6.46-4.74-12-11.43-13.17-20.77-.85-6.62-2.25-22.19,15.19-36.61,9.27-7.65,19.56-12.45,22.29-14.18,1.18-.75,1.21-1.54.84-2A1.79,1.79,0,0,0,54.19,34.26Z"/><path class="cls-3" d="M183.79,66.63c3.48,38.41-93.7,56.54-117.27,55.86-5,9.43-6.62,12.47-7.73,20.16-1,6.86,1.63,13.62,6.92,16.38-3.75-3.3-5.5-9-4.66-14.83,1.12-7.69,2.69-10.72,7.74-20.16,23.56.69,120.75-17.44,117.27-55.86a14.7,14.7,0,0,0-5.86-10.32,27.91,27.91,0,0,0-2.57-1.45A13.65,13.65,0,0,1,183.79,66.63Z"/><path class="cls-3" d="M80.08,162.82c-7.22,3.5-14.35,6-20.63,6.47-1.59.11-9,.6-14.32-3.85a12.26,12.26,0,0,0,.82.94c5.78,4.88,14.14,4.58,15.77,4.46,15-1.16,35-13.77,49.45-24.5,0-.08.12-.16.19-.25a91.59,91.59,0,0,1,9.51-10.64C111.9,142.8,95.76,155.22,80.08,162.82Z"/><path class="cls-3" d="M416.91,175.6c.78,0,20.93-1,23.07-8.76.93-3.32-.78-6.25-4.47-8.71-.43-.25-.86-.51-1.3-.74,3.05,2.17,4.35,4.81,3.49,7.9-2.15,7.74-22.28,8.92-23.07,8.74-.56-.11-.82-.54-.53-.88a1.14,1.14,0,0,0-.33.53C413.64,174.47,414.42,175.51,416.91,175.6Z"/><path class="cls-3" d="M24.38,223.63A35.24,35.24,0,0,0,20,229a15.11,15.11,0,0,0-2.29,5.56,7.92,7.92,0,0,0-.11,2.82,5.36,5.36,0,0,0,3.5,4.15A5.89,5.89,0,0,1,20,236.08a14.91,14.91,0,0,1,2.28-5.56,33.35,33.35,0,0,1,4.37-5.34c7.42-7.51,23.43-18.63,58.45-33.5l.71-1.09c.5-.78,1-1.55,1.47-2.33C49.14,204.05,32.11,215.8,24.38,223.63Z"/><path class="cls-3" d="M155.77,57.27A19,19,0,0,1,168.66,59c-3.5-2.94-8.91-4.47-15.16-3.25-45.88,8.92-71.95,40-84.71,62.78.88,0,2,0,3.23-.13C85.11,95.8,111,66,155.77,57.27Z"/><path class="cls-3" d="M49.3,120c-5.6-1-17.64-3.93-27.83-10.17.36.28.73.55,1.1.82,9,5.8,19.63,8.92,26.15,10.34C48.92,120.67,49.1,120.34,49.3,120Z"/><path class="cls-3" d="M493.44,99.41c-5.13-4-12.18-5.6-17.14-6.23L474.74,93c-.84-.08-1.57-.12-2.19-.17,0-.81-.21-2.27-.31-3.07h0c-1.67-10.07-7.49-14.09-7-19.58,5.24-4.36,7.78-7.33,8.88-9.17,1-1.67,1.23-4.51-.35-6.11a.61.61,0,0,0-.14-.1c-.15-.1-.83-.61-1.08-.74,1.08.74.84,2.27.25,3.51-.88,1.92-4.59,6.69-9.82,11.05-.51,5.83,6.11,10,7.26,21.44.06.6.17,1.92.22,2.7h0c0,.27,0,.54,0,.82a17.13,17.13,0,0,1-7.17,14.07,29.4,29.4,0,0,1-12.42,5.22,35.09,35.09,0,0,1-5.14.49c-5,.08-8.66-1.24-10.61-3.51a8.77,8.77,0,0,0,1,1.37c3.14,3,9.42,4.49,17,3.22,7.74-1.32,19.59-6.77,19.57-19.31v-.81C473.16,94.33,484.92,94.29,493.44,99.41Z"/><path class="cls-3" d="M257.86,154.78c-3.7.33-7.4.69-11.1,1.05q-9.57.94-19.09,2.15-9.91,1.26-19.8,2.74-3,.43-5.91.9c-29.25,4.57-58.92,10.6-82.85,16.79l-3.61,1s2.31-4.23,2.28-4.22c7.79-14.32,15.2-28.94,21.43-38.64,3.59-5.59,11.55-17.13,16.82-19.06,1.21-.45.84-2-.1-2.84a3,3,0,0,0-.83-.36c.06.07.11.15.17.21.23.29.59,1,.14,1.26-6.71,2.63-14.63,14.23-18.3,19.48-7.07,10.13-14.85,26.17-23.26,41.43l.05,0s-2.11,3.74-2.13,3.74c-5.51,9.81-11.08,19.22-17.33,25.87-22.2,23.59-40,33.24-51.92,37.08a46.8,46.8,0,0,1-12.11,2.37c-.59,0-1.14.06-1.64.06a21.66,21.66,0,0,1-9-1.61A26.08,26.08,0,0,0,31,247.28c24.23,1.18,65.78-29.13,82.81-64.89l.26-.5q7-1.92,14.11-3.65,7.62-1.89,15.3-3.59,8.1-1.82,16.23-3.47,8.42-1.73,16.87-3.28t17.22-3q8.63-1.44,17.29-2.73t17.08-2.37q8.28-1.06,16.58-1.94c5.41-.57,10.84-.93,16.23-1.59,3.21-.39,6.49-.5,9.73-.73s6.36-.44,9.54-.64q8.94-.57,17.9-1,8.19-.37,16.38-.58,7.47-.19,14.93-.23c4.51,0,9,0,13.52.09q6.11.11,12.2.37,5.47.24,10.94.63,4.88.35,9.73.84,4.31.44,8.6,1c2.51.34,5,.72,7.52,1.16,2.18.38,4.36.8,6.52,1.28,1.87.41,3.73.85,5.58,1.35,1.57.43,3.14.89,4.69,1.4,1.31.43,2.61.89,3.88,1.4,1.06.42,2.11.88,3.14,1.38.82.4,1.63.83,2.41,1.29-.57-.34-1.08-.81-1.64-1.17-.73-.47-1.48-.89-2.25-1.29-.95-.49-1.93-.94-2.91-1.35-1.2-.51-2.41-1-3.64-1.4-1.46-.51-2.94-1-4.42-1.39-1.75-.5-3.51-.95-5.28-1.37-2-.48-4.12-.91-6.19-1.3-2.38-.45-4.78-.84-7.18-1.2q-4.1-.6-8.21-1.06-4.65-.52-9.32-.9-5.25-.42-10.5-.7-5.85-.3-11.72-.45-6.53-.18-13-.19-7.2,0-14.39.11-7.91.15-15.81.46-8.65.33-17.3.82-9.42.54-18.85,1.24C263,154.34,260.44,154.55,257.86,154.78Z"/><path class="cls-2" d="M241.82,99.9c-10,.61-25.93,20.16-24.74,30.44a7.31,7.31,0,0,0,1.16,3.42,5,5,0,0,0,1.55.15,9.18,9.18,0,0,1-.44-2c-1.2-10.28,15.06-29.25,22.9-29.93a4.15,4.15,0,0,0,1-.2c.79-.82,1.54-1.56,2.22-2.21a3.63,3.63,0,0,0-1.63-4.22C245.36,96.73,244.19,99.76,241.82,99.9Z"/><path class="cls-2" d="M295.46,83.75c9.1,5.75-3.82,26.72-20.4,32.11a7.87,7.87,0,0,1-.89.18c-.38.07-.81.13-1.21.18l-.84.07a11.48,11.48,0,0,0,2.58,6.29,6.31,6.31,0,0,0,1.37.38,13.13,13.13,0,0,1-1.66-4.93,26.24,26.24,0,0,0,2.91-.62C295.83,111.71,306.07,88.89,295.46,83.75Z"/><path class="cls-2" d="M198.35,107.94c-4.59,6.93-14.92,28-12.32,34a4.43,4.43,0,0,0,.52,0,4,4,0,0,0,1.47-.41c-.38-7.34,7.47-24.11,11.72-31,.49-.8,1.88-3.14,2.27-3.77.85-1.36-1.64-2.64-3.21-3.09a2.69,2.69,0,0,1,.58.34C200.09,104.6,200.28,105,198.35,107.94Z"/><path class="cls-2" d="M241.12,138.58a10.7,10.7,0,0,1-8.77-2.54c2.16,2.71,7.2,4.66,11,4.1,6.21-.91,13.57-5.42,19-13.41a11.47,11.47,0,0,1-1.78-2.26C255.13,132.92,247.52,137.75,241.12,138.58Z"/><path class="cls-2" d="M202.69,134.61c-5.28,7.32-12.1,14.45-19.45,15.29-3.7.43-8.18-1-10.23-4.2,1.75,3.31,6.1,6.61,12.5,5.75,7-.92,13.46-7.29,18.62-14.17a.93.93,0,0,0,0-.1A9,9,0,0,1,202.69,134.61Z"/><path class="cls-2" d="M302.78,115.16c-9.33,9.55-22.06,17.09-31.94,16.23a10.08,10.08,0,0,1-2.22-.55,17.15,17.15,0,0,0,5.28,1.69c9.14.81,20.27-5.35,29.13-13.79a7.55,7.55,0,0,1-.4-2.29C302.66,116,302.71,115.6,302.78,115.16Z"/><path class="cls-2" d="M178.93,109.58c-1,2.62-1.75,4.3-3.17,7.25a16.56,16.56,0,0,0,3.66-1.36c.66-1.43,1.19-2.69,1.77-4.33,1.5-4.2-2.1-7.6-4.46-8.51A5.68,5.68,0,0,1,178.93,109.58Z"/><path class="cls-2" d="M174.63,125.76a3.72,3.72,0,0,1-3.49-.76c-.62,1.19-22.25,34.4-31.27,39.23-3.48,1.85-6.87.35-6.86-.79-.58,1.56,3.09,5.78,9.13,2.34,8.12-4.6,26.94-32.48,30.63-38.22h0a6.18,6.18,0,0,0,4.13-.25l.25-.11q1-1.5,2.16-3.12A22.43,22.43,0,0,1,174.63,125.76Z"/><path class="cls-2" d="M230.09,133.38c-8.58,11.47-20.7,11-25.21,5.07,4.48,7.75,17.93,8.53,27-2.9A6.82,6.82,0,0,1,230.09,133.38Z"/><path class="cls-2" d="M438.88,106.66a4,4,0,0,0,1.34,3.2,8.39,8.39,0,0,0,1.49.55,3.87,3.87,0,0,1-.57-2.19c.59-7.35,10.89-10.67,18-11.75-.1-.6-.24-1.2-.36-1.81C451.77,95.41,439.5,98.63,438.88,106.66Z"/><path class="cls-2" d="M409.37,76.13c-1.39,2-2.12,2.9-4.42,5.75a16.48,16.48,0,0,0,4-.54,33.79,33.79,0,0,0,2.54-3.59,6.52,6.52,0,0,0-2.39-9.69C411.58,69.59,411.41,73.18,409.37,76.13Z"/><path class="cls-2" d="M430.19,77c-.85.71-12.88,12-16.47,19.08-2.67,5.25-4,10.26-3.27,12.71a7.14,7.14,0,0,0,2.05-.48c.13-2.71,1.42-6.62,3.48-10.67,3.59-7.1,14.68-17.38,15.46-18.14,1.64-1.56.19-3.6-1.27-4.86A1.48,1.48,0,0,1,430.19,77Z"/><path class="cls-2" d="M285.42,88.8c-8.59,2-13.67,16.76-13.62,23.36a.68.68,0,0,1,.28-.19,13.55,13.55,0,0,0,2.2-1c1.05-7.27,5.88-18.78,13.41-20.56l.15,0a5.61,5.61,0,0,0-.87-1.48A3,3,0,0,0,285.42,88.8Z"/><path class="cls-2" d="M360.81,82.75c-8.81,1-15.65,15.14-16.35,21.65v0l.13,0a15.35,15.35,0,0,0,2.6-.9c1.78-7,7.85-17.93,15.52-19.14a6.56,6.56,0,0,0-.86-1.55A2.81,2.81,0,0,0,360.81,82.75Z"/><path class="cls-2" d="M247.64,77.61c-3.48.87-5.37-1.47-4.51-3-1.5,1.76.9,6.06,4.86,5,30.18-8.37,64.47-13.94,86.85-15.06.49-.58,1-1.15,1.43-1.71C314.44,63.46,281,69.23,247.64,77.61Z"/><path class="cls-2" d="M381.28,64.71c-.32,6.22-13.47,4.67-12.11,1.54a1.78,1.78,0,0,0-.06,2.3c2,3.43,14.57,4,14.23-2.51-.12-2.39-2-4.56-5.06-6.25C380.28,61.23,381.37,62.92,381.28,64.71Z"/><path class="cls-2" d="M355.08,49.53c.27,1-1.25,3.19-2.54,4.9,1,0,2.12,0,3.14.1a6.82,6.82,0,0,0,1.3-3c0-1.48-2.91-4.69-4.52-5.13A6.55,6.55,0,0,1,355.08,49.53Z"/><path class="cls-2" d="M346.67,62.6C322.1,97.83,321.08,103,318.46,109c-1.52,3.44-1.38,5.46-.65,6.65a4.46,4.46,0,0,0,1,.12,6.15,6.15,0,0,0,.75-.1,10.54,10.54,0,0,1,1.16-5.12c2.6-6,3.63-11.14,28.22-46.39,12.4-.06,17.21.52,20.45,1.75l0,0C369.83,65.34,368.36,62.49,346.67,62.6Z"/><path class="cls-2" d="M372.23,80c6.31,7.23-8,25.24-25,28.33l-.69.1c-.45.06-1,.12-1.55.16a5.86,5.86,0,0,1-.73,0c.12,3.26.93,5.54,2.26,7a7.25,7.25,0,0,0,1.39.38,12.48,12.48,0,0,1-1.37-5.8c1.13-.06,2.69-.24,3-.28C366.93,107,380.54,87.55,372.23,80Z"/><path class="cls-2" d="M255.38,99.79c-7.55,7.67-11.48,20.16-12.07,25.37-.27,2.47-.09,4.17.43,5.23a4.87,4.87,0,0,0,1.79-.24,14.79,14.79,0,0,1,.05-3.43,50.35,50.35,0,0,1,11.63-25.09c1.41-1.56-1.09-4.77-3.75-5.82C255.23,96.74,256.43,98.71,255.38,99.79Z"/><path class="cls-2" d="M510.26,112c-.8-4.77-4.7-9-9.3-12.24,3.5,2.8,6.32,6.44,7,10.69,3.46,20.62-26.17,29.69-37.87,30.05-4.5.13-8.3,0-11.36-1.07-1.57-.53-2.13-1.67-1.93-2.35a2.43,2.43,0,0,0,.73,3c3.73,2.41,9.71,2.46,14.93,2.14C484.19,141.55,513.7,132.64,510.26,112Z"/><path class="cls-2" d="M402.24,89.87A3.78,3.78,0,0,1,399,88.33c-.83,1-14.57,16.66-28,25.61-9.72,6.75-21,11.32-29.48,9.54a27.41,27.41,0,0,0,4.7,1.41c8.54,1.58,17.32-2.64,27.06-9.4,12-8,24.26-21.35,27.34-24.8a7.12,7.12,0,0,0,3.92.74l.71-.08c.78-.71,1.62-1.45,2.5-2.21A22.32,22.32,0,0,1,402.24,89.87Z"/><path class="cls-2" d="M311.57,124.78a6.83,6.83,0,0,1-2.6-.57,6.94,6.94,0,0,0,4.86,2.12c7.32.12,14.5-4.22,19.12-8.81a11,11,0,0,1-1.39-2.47C327,120,319.35,124.9,311.57,124.78Z"/><path class="cls-2" d="M443.47,93.88c4-3.81,8.56-8.23,12-11.55a28.81,28.81,0,0,1-.49-3.25c-4.05,3.91-10.82,10.44-15.91,15.26-6.85,6.86-23.5,23.1-34.94,20.49-4.07-.93-6.29-2.65-7.47-4.3,1,1.8,3.7,4.71,9.76,5.86,8.31,1.58,19.28-6.25,27.31-13.3C434.74,98.84,438.72,95.86,443.47,93.88Z"/><path class="cls-2" d="M435.51,158.13c3.69,2.46,5.4,5.39,4.47,8.71-2.14,7.74-22.29,8.79-23.07,8.76-2.49-.09-3.27-1.13-3.14-1.92-.37,1.25.56,3.65,5.39,3.47.81,0,20.95-1,23.07-8.74C443.27,164.72,440.57,161.11,435.51,158.13Z"/><path class="cls-2" d="M53.66,36.53c-2.73,1.73-13,6.53-22.29,14.18-17.44,14.42-16,30-15.19,36.61,1.18,9.34,6.71,16,13.17,20.77.4.26.81.52,1.22.76-6-4.67-11-11.14-12.13-20-.79-6.19-2.07-21.31,12.81-35.09,7.24-6.71,20.23-13.85,22.18-15a2.94,2.94,0,0,0,1.07-4.27C54.87,35,54.84,35.78,53.66,36.53Z"/><path class="cls-2" d="M186.06,68.18C189.54,106.6,92.35,124.73,68.79,124c-5.05,9.44-6.62,12.47-7.74,20.16-.84,5.8.91,11.53,4.66,14.83a9.6,9.6,0,0,0,1.27.56c-3.06-3.37-4.42-8.57-3.65-13.81,1.1-7.71,2.67-10.74,7.72-20.18,23.57.69,120.75-17.44,117.27-55.86-.45-5-3.67-9-8.12-11.88A14.7,14.7,0,0,1,186.06,68.18Z"/><path class="cls-2" d="M22.57,110.66c8.21,6,18.44,9.44,25.61,11.24l.54-.9C42.2,119.58,31.52,116.46,22.57,110.66Z"/><path class="cls-2" d="M61.72,170.84c-1.63.12-10,.42-15.77-4.46,6,6.35,16.27,6.15,18,6,13.09-1,29.85-10.67,43.52-20.23a46.75,46.75,0,0,1,3.67-5.83C96.68,157.07,76.77,169.68,61.72,170.84Z"/><path class="cls-2" d="M155.77,57.27C111,66,85.11,95.8,72,118.37c1-.07,2.13-.16,3.35-.28C88.79,95.77,114.48,67.3,158,58.83a19.6,19.6,0,0,1,11.63,1.07,12.51,12.51,0,0,0-1-.93A19,19,0,0,0,155.77,57.27Z"/><path class="cls-2" d="M22.25,237.65c.72-3.46,3.15-17.45,60.53-42.44.78-1.18,1.55-2.35,2.31-3.53-35,14.87-51,26-58.45,33.5a37.44,37.44,0,0,0-4.37,5.34A14.91,14.91,0,0,0,20,236.08a5.89,5.89,0,0,0,1.12,5.42,10.81,10.81,0,0,0,1.55.52A6.48,6.48,0,0,1,22.25,237.65Z"/><path class="cls-2" d="M418.23,165.29a9.74,9.74,0,0,0-1.55-.86q-.92-.48-1.86-.9c-.72-.33-1.44-.63-2.17-.92s-1.67-.64-2.51-.94-1.89-.64-2.85-.93-2.15-.64-3.23-.93-2.41-.62-3.62-.91-2.68-.6-4-.88-3-.58-4.45-.84-3.27-.55-4.9-.79c-1.79-.26-3.58-.51-5.37-.73q-2.93-.36-5.86-.66-3.16-.33-6.36-.58-3.44-.28-6.88-.49c-2.47-.15-4.95-.28-7.42-.39-2.66-.12-5.33-.21-8-.28-2.86-.07-5.71-.13-8.57-.16-3.05,0-6.11,0-9.16,0q-4.9,0-9.79.11-5.22.1-10.42.27-5.55.18-11.08.43c-3.92.17-7.84.38-11.76.6q-6.22.36-12.45.78c-4.44.31-8.87.53-13.29,1-3.69.39-7.39.69-11.08,1.05s-7.31.75-11,1.16-7.51.89-11.26,1.38-7.65,1-11.47,1.56-7.74,1.14-11.61,1.74-7.77,1.24-11.65,1.89-7.75,1.33-11.61,2-7.66,1.41-11.49,2.15-7.51,1.47-11.27,2.25-7.31,1.52-11,2.32-7.06,1.57-10.59,2.39q-5.06,1.19-10.11,2.43-4.42,1.11-8.85,2.28s3.64-6.66,3.61-6.65c7.22-13.46,13.8-26.72,19.6-35.93,3.42-5.42,11-16.79,15-18.42,1.95-.8,2.4-1.74,1.64-3.43a4.33,4.33,0,0,0-1.71-1.88c.94.85,1.31,2.39.1,2.84-5.27,1.93-13.23,13.47-16.82,19.06-6.31,9.81-13.8,24.65-21.67,39.12l-3.43,6.27-.07,0c-16.86,36-58.67,66.55-83,65.36a26.08,26.08,0,0,1-11.32-3.17,9.43,9.43,0,0,1-2.63-1.76c3.08,3.2,10.08,6.51,16.22,6.48,22.42-.08,58.45-17.87,82.79-65l0,0,.23-.4Q121,182.2,125.6,181q4.89-1.25,9.81-2.41,5.15-1.23,10.3-2.38,5.35-1.2,10.72-2.33t11-2.25q5.64-1.12,11.28-2.17t11.44-2q5.74-1,11.51-1.93t11.5-1.79q5.7-.84,11.41-1.62t11.24-1.44q5.47-.68,11-1.25c3.54-.37,7.09-.72,10.63-1,3.15-.28,6.34-.63,9.5-.87l6.58-.49q6.32-.44,12.63-.82,6-.36,11.92-.64c3.75-.18,7.49-.33,11.24-.46,3.53-.12,7.05-.23,10.58-.3q5-.1,9.93-.15c3.1,0,6.21,0,9.31,0,2.9,0,5.8.07,8.7.14,2.71.06,5.41.15,8.12.25,2.51.11,5,.23,7.54.37q3.51.21,7,.48,3.24.24,6.47.56c2,.2,4,.41,6,.65,1.82.22,3.65.46,5.47.72s3.33.5,5,.78,3,.54,4.55.84,2.74.56,4.11.87,2.46.58,3.69.91,2.21.59,3.3.92,2,.61,2.92.94,1.72.61,2.57.94,1.49.6,2.23.92,1.28.59,1.9.91l.44.23C418.84,165.83,418.56,165.56,418.23,165.29Z"/><path class="cls-2" d="M498.46,105.7s0,0,0,0a16.36,16.36,0,0,0-4.11-5.47l.11,0c-.33-.29-.66-.57-1-.84s-.91-.52-1.37-.76l-.29-.14c-.39-.2-.79-.39-1.19-.57l-.14-.07a47.23,47.23,0,0,0-15.66-3.48c-.09-1.08-.29-2.78-.44-3.84h0a1,1,0,0,0,0-.24c0-.23-.08-.42-.09-.55h0c-2-8.94-7.16-12.82-6.71-18,5.2-4.36,7-6.47,8.06-8.34,2.24-4.15-.84-7.76-1.81-8.5,1.58,1.6,1.32,4.44.35,6.11-1.1,1.84-3.64,4.81-8.88,9.17-.48,5.61,5.62,9.66,7.11,20.21h0a16.12,16.12,0,0,1,.23,2.76l.13,1.17h0v.81c0,12.54-11.83,18-19.57,19.31-7.56,1.27-13.84-.23-17-3.22,3.37,3.77,10.54,6.33,18.89,4.92,7.7-1.32,20-6.91,19.94-19.45,0-.27,0-.55,0-.82C491.88,96.38,497.19,103.52,498.46,105.7Z"/><path class="cls-4" d="M488.24,88.14a5.27,5.27,0,1,1,5.3-5.25A5.09,5.09,0,0,1,488.24,88.14Zm0-9.3a4.05,4.05,0,0,0,0,8.08v0a4.06,4.06,0,0,0,0-8.1Zm-.85,6.87h-1.22V80.06h2.1c1.48,0,2.35.4,2.35,1.7a1.32,1.32,0,0,1-1.36,1.47l1.44,2.48h-1.43L488,83.34h-.57Zm1.06-3.34c.55,0,.86-.12.86-.73s-.61-.63-1.09-.63h-.83v1.36Z"/><path class="cls-5" d="M470.23,90.29c-1.11-11.66-7.8-15.81-7.29-21.67,5.23-4.36,8.94-9.13,9.82-11.05s.54-3-.25-3.51-2.46-.8-4.63.53a32.47,32.47,0,0,0-11,12.48,17.72,17.72,0,0,0-1.06,3.23c-4.55,4.88-12.92,12.89-19.28,18.89-4.46,4-20.84,20.35-26.73,19.57-3.22-.42-2-7.14,1.61-14.24s17-19.17,17.69-20-1.78-1.68-2.2-1.4c-9.86,6.81-24.41,11.13-24.34,7.32,2.36-2.95,3.52-4.46,5.19-6.95s2.36-5.13.24-5.91-4.44,1.33-6.9,4.29c-2.56,3.14-5.3,9-5.57,11.63-1.92,3.24-15.72,16.36-26.54,24.22-15,10.22-28.81,13.78-26.81-4.9.7-6.51,7.54-20.65,16.35-21.65,3.48-.4,7.45,5.67,1.69,13.57-3.79,5.2-14.15,9.41-15.65,9.64a.78.78,0,0,0-.56.4,2.23,2.23,0,0,0,.07,1.77c.21.26.46.31.91.22,20.55-4,39.78-29.91,18-29.94-13.42,0-28.76,17.92-31.76,29.76-3,4.22-8.46,8.92-12.4,9.15-.33,0-6.23-.08-2.63-8.33,2.63-6,3.65-11.16,28.22-46.39,21.7-.11,26.06,3.48,25,4.82-1.58,2,9.6,3.58,9.79-2.6s-12.16-8.87-30.13-8.87c1.18-1.69,2.42-3.45,3.72-5.26a2.69,2.69,0,0,0,.15-1.46l-.22-.56s-.6-1.46-1.82-.64c-.29.19-3.18,3.23-7.42,8-35.65,2-72.41,9.58-98.44,18.77-3,1.05-1.19,3.22.32,2.81,35.05-9.62,70.63-14.81,92.28-14.87-8.74,10.25-19.92,24.23-27.26,36.45-15.8,20.25-40.49,38.34-40.86,13.09-.1-6.55,5-21.42,13.62-23.48,3.42-.81,8.07,4.74,3.31,13.26-3.14,5.64-12.92,11.06-14.38,11.47a.64.64,0,0,0-.41.41,4.7,4.7,0,0,0,.18,1.7c.06.26.29.42.92.22,19.89-6.47,35.93-34.5,14.22-31.9-13.45,1.62-26.64,21.67-28,33.74a2.32,2.32,0,0,0-.12.35c-1.78,6.92-19.64,23-17.87,7.11.59-5.2,3.21-15.3,12.37-25.75,1.6-1.43-1.55-4.18-4.49-1.39-.2.19-14.79,11.84-18.71,26.05-2.42,4.93-6.54,11.13-10.2,11.4-3.85.27-4.91-2.69-5.19-5.13-1.19-10.27,16.34-31.67,26.75-30.52,1.68.19,4.2-4.05-.74-3.63-13.32,1.13-31.15,14.09-36.85,27.73-5.1,7.84-13,19.3-17.43,19.57-9.32.58,4.27-29.32,11.14-37.7.7-.84-2.11-1.22-2.47-.84-8.07,8.83-21.29,16.31-22.06,12.59,1.65-3.42,2.41-5.14,3.5-8s1.12-5.51-1.09-5.82-4,2.31-5.75,5.74c-1.8,3.64-3.17,10-2.83,12.6-1.31,4-23.77,35.47-33.45,42.12-1.54,1.05,2.73.72,4.06,0,9-4.88,30.65-38,31.27-39.23a3.7,3.7,0,0,0,3.5.75c9.22-2.16,13.95-9.63,15.28-10.23-26.89,29.66-13.12,35.18-6.67,34.38,8.16-1,15.69-9.65,21.17-17.76a15.55,15.55,0,0,0,.09,2c1,9.33,16.08,14.38,27-2.86,0,.59,0,1.19.11,1.77,1.15,4.18,4.62,6.2,9.51,5.48,6.77-1,14.92-6.25,20.48-15.66a11.35,11.35,0,0,0,9.24,8.47c11.37,1,26.55-9.15,35.93-20.69a25.5,25.5,0,0,0-1.88,7.31,6.69,6.69,0,0,0,6.65,6.77c8.72.14,17.24-6,21.48-11.43a11.37,11.37,0,0,0,8.2,9.92c8.51,1.79,20-2.57,29.74-9.33,13.47-8.95,27.21-24.64,28-25.61A3.74,3.74,0,0,0,400,88.31c9.47,0,15.75-6.27,17.19-6.54-23.3,16.71-21.85,24-21.91,24.68s.23,5.57,6.61,6.82c11.51,2.26,28.09-13.63,34.93-20.49,6.38-6,15.41-14.8,18.39-17.67-1.06,4.1.93,9.84,2.57,15.52-8.83.57-24.5,4.59-24.32,14.85.11,5.82,6.46,9.24,17.38,7.39,7.71-1.31,19.6-6.76,19.59-19.29,0-.28,0-.55,0-.82h0c0-.75-.09-1.69-.16-2.47Zm-19.82,20.13c-8.33,2-14.07-1.57-13.79-5.32C437.31,96.3,452,93.28,458.38,93,460.38,100.72,460.73,108,450.41,110.42Z"/><path class="cls-5" d="M13.91,85.77c-1.11-8.71-3.88-30.94,38.41-50,2.73-1.22,2.24-2.27.09-1.53C46.29,36.38.41,52,4.76,87.11,7.6,110,39.11,118.19,49.3,120l-.09.17c.54-.83,1.44-2.19,2.18-3.31C51.05,116.81,17.07,110.64,13.91,85.77Z"/><path class="cls-5" d="M113.85,176.62c8.41-15.26,16.19-31.3,23.26-41.43,3.67-5.25,11.59-16.85,18.3-19.48.45-.29.09-1-.14-1.26s-.47-.75-1.48-.24-23.6,11.39-34.17,19.63S90.69,154,77.35,159.1c-12.72,4.92-20.13-5.63-18.56-16.45,1.11-7.69,2.68-10.73,7.73-20.16,23.57.68,120.75-17.45,117.27-55.86-1-11.44-14.68-15.64-26.35-14.4-42.15,4.42-85.64,33.94-106,64.64h0c-.74,1.12-1.64,2.48-2.18,3.31C41.69,132.43,38,144.71,39.8,155.43c2.49,15,17.32,14,19.65,13.86,19.91-1.56,48.31-23.1,61.42-33.84-10,9.85-12.12,14.47-14.07,18-.74,1.35-7.18,14.61-16.88,30.51,0,0,0,0,0,0-.63,1-2,3.32-2.63,4.28,0,0,0,0,0,0l-.25.41s0,0,0,0,0,0,0,0c-15.68,24.85-38.41,53.35-59.64,54-8.87-.25-10.5-4-9.66-8.11.75-3.62,3.4-18.88,69.54-46.26.59-1,2-3.23,2.63-4.28-6.86,2.59-71.4,28.14-75.09,50.34-.35,1.73-1.83,11.38,14,11.39,8.4,0,31.9-3.65,65.67-39.51,6.25-6.65,11.82-16.06,17.33-25.87h0c.54-1,1.47-2.65,2.07-3.73ZM153.5,55.72c11.55-2.25,20.23,4.87,19.24,12.93-4.46,36.23-87.43,49.78-103.95,49.85C81.55,95.76,107.62,64.64,153.5,55.72Z"/><path class="cls-5" d="M505.72,108.91c-2.35-14.08-22.52-17.53-31.37-18.36h0c.1.67.19,1.59.29,2.45,4.92.47,13.08,1.92,18.8,6.41h0a16.26,16.26,0,0,1,6.4,11.53c1.87,19.34-26.55,25.34-32.62,26.06a28.56,28.56,0,0,1-9.15-.4c-1.8-.44-.9,1.18-.9,1.18s2.78,1.48,10.7,1.18C479.54,138.51,509.17,129.53,505.72,108.91Z"/><path class="cls-5" d="M416.14,151.22c-33.13-5.92-95-5.61-155.12-.65-57.13,4.69-108.65,15.91-139.85,24.09l-2,3.75q7.47-1.93,15-3.68,8-1.87,16-3.58,8.4-1.78,16.83-3.42,8.66-1.66,17.32-3.19t17.52-2.9q8.7-1.37,17.42-2.55,8.49-1.17,17-2.14,8.16-.93,16.34-1.67c6.48-.57,13-1.15,19.45-1.59q9.13-.63,18.3-1.09,8.39-.43,16.77-.7,7.65-.26,15.31-.34,7-.09,13.91,0,6.3.08,12.58.29c3.77.13,7.54.3,11.3.53,3.37.21,6.74.46,10.1.77,3,.27,6,.58,8.94,1,2.63.33,5.25.69,7.87,1.11q3.44.56,6.84,1.24c2,.39,3.94.83,5.89,1.32,1.67.42,3.34.87,5,1.37,1.4.43,2.79.89,4.17,1.4,1.15.43,2.28.88,3.4,1.39.91.41,1.81.85,2.69,1.33a22.67,22.67,0,0,1,2.06,1.26,16.18,16.18,0,0,1,1.48,1.14,8.25,8.25,0,0,1,1,1,3.57,3.57,0,0,1,.51.81,1.44,1.44,0,0,1,.14.49c.06,1.84-1,3.76-5.55,4.89-1.07.27-.86,1.06-.08,1.21s20.92-1,23.07-8.74C439.59,158.45,430.94,154,416.14,151.22Z"/><path class="cls-6" d="M448.37,56c-2.94-.51-8.9,6.08-8.33,8.75.7,3.33,2.91,3.92-5.56,11.34-1.27,1.31.21,2.45,1.19,1.53s9.74-6.16,14.33-15.43C452,58.11,450,56.25,448.37,56Z"/><path class="cls-2" d="M222.35,179.17c-.23,1.14-.7,1.52-1.74,1.47l-1.82-.13-.25,3.61,2.5.18-1.15,16.36,4.37.31,1.55-22.08-3.35-.23Z"/><path class="cls-2" d="M241.27,179.08c-4.16-.09-6.79,2.18-6.91,6l0,1.22a4.94,4.94,0,0,0,1.78,4,5,5,0,0,0-2.11,3.91l-.05,1.6a6,6,0,0,0,1.68,4.58,7.19,7.19,0,0,0,4.95,1.85h.33a7.11,7.11,0,0,0,4.74-1.55,6,6,0,0,0,1.94-4.48l0-1.6a4.92,4.92,0,0,0-1.86-4,4.94,4.94,0,0,0,2-3.9l0-1.22C247.93,181.67,245.42,179.21,241.27,179.08Zm2.38,7.53A2.35,2.35,0,0,1,241.1,189H241a2.36,2.36,0,0,1-2.53-2.53l0-1a2.74,2.74,0,0,1,.75-1.93,2.57,2.57,0,0,1,1.81-.63h.13a2.4,2.4,0,0,1,2.52,2.71Zm-5.55,7.94a2.49,2.49,0,0,1,.66-1.62,2.65,2.65,0,0,1,2-.74h.13a2.66,2.66,0,0,1,2.07.87,2.44,2.44,0,0,1,.56,1.66l0,1.16a2.48,2.48,0,0,1-2.68,2.56h-.1a2.82,2.82,0,0,1-1.92-.74,2.56,2.56,0,0,1-.7-2Z"/><path class="cls-2" d="M255.42,179.88l.06,4.09,8.69-.12c-2.25,3.6-6.19,10.87-6.1,17.52v.6l4.56-.06v-.59c-.09-6.9,2.52-12.42,6.47-18.59l.1-.15,0-2.88Z"/><path class="cls-2" d="M288.2,180a7.14,7.14,0,0,0-5.2-1.54,7.23,7.23,0,0,0-5,2.15,6.48,6.48,0,0,0-1.62,4.92l.59,9.86c.23,3.85,2.88,6.25,6.83,6.25h.6c4.19-.25,6.84-3.1,6.6-7.08l-.59-9.85A6.46,6.46,0,0,0,288.2,180Zm-6.93,15.35-.62-10.29a2.45,2.45,0,0,1,2.59-2.58h.24a2.37,2.37,0,0,1,2.6,2.26l.61,10.3a2.34,2.34,0,0,1-.55,1.72,2.83,2.83,0,0,1-2,.85A2.43,2.43,0,0,1,281.27,195.36Z"/><path class="cls-2" d="M224,45.2c-.26-3.26-2.41-4.72-5.8-6s-4.1-1.92-4.19-3.1a1.88,1.88,0,0,1,.39-1.39A2.26,2.26,0,0,1,216,34a2.52,2.52,0,0,1,2.09.63,3.08,3.08,0,0,1,.77,2l.08.93,4.25-.35L223,35.81a6,6,0,0,0-2.24-4.31,7.09,7.09,0,0,0-5.06-1.35c-3.88.31-6.39,3-6.11,6.58s3.16,5,6.24,6.08,3.62,1.78,3.73,3.11a2.17,2.17,0,0,1-2.28,2.47,2.54,2.54,0,0,1-2-.52,3.23,3.23,0,0,1-.85-2.2l-.07-.93-4.34.35.12,1.55a6,6,0,0,0,2.28,4.3,7,7,0,0,0,4.36,1.38q.38,0,.75,0C221.57,52,224.27,49,224,45.2Z"/><rect class="cls-2" x="231.53" y="29.54" width="4.39" height="21.22" transform="translate(-1.52 10.14) rotate(-2.48)"/><polygon class="cls-2" points="255.6 50.28 258.76 50.26 258.6 29.03 254.39 29.06 254.48 40.67 247.79 29.11 244.38 29.14 244.54 50.37 248.75 50.33 248.66 38.81 255.6 50.28"/><path class="cls-2" d="M280.86,44.92l.08-2.22-4.08-.15-.07,2a2.73,2.73,0,0,1-.74,2,2.9,2.9,0,0,1-2.13.63c-1.78-.07-2.73-1-2.67-2.63l.34-9.16a2.55,2.55,0,0,1,.73-1.82,2.81,2.81,0,0,1,2.13-.63,2.86,2.86,0,0,1,2.08.78,2.79,2.79,0,0,1,.59,2l-.08,2,4.09.15.08-2.22a6.37,6.37,0,0,0-1.48-4.61A7,7,0,0,0,274.51,29c-5.15-.24-7.19,3.41-7.31,6.56L266.88,44c-.11,3.16,1.59,6.91,6.8,7.11h.42C278.2,51.16,280.71,48.85,280.86,44.92Z"/><polygon class="cls-2" points="301.61 35.23 301.94 31.19 289.95 30.22 288.23 51.38 300.22 52.35 300.55 48.31 292.93 47.69 293.35 42.56 298.84 43.01 299.15 39.12 293.67 38.67 294 34.62 301.61 35.23"/><path class="cls-5" d="M219.84,199.21,221,182.84l-2.51-.18.17-2.41,1.22.09c1.57.11,2.13-.77,2.37-2l2.23.16L223,199.43Z"/><path class="cls-5" d="M239.89,200.77c-4-.12-6.15-2.42-6-5.81l0-1.6a4.3,4.3,0,0,1,2.7-3.88,4.24,4.24,0,0,1-2.37-4l0-1.22c.11-3.4,2.34-5.56,6.3-5.44s6.06,2.42,6,5.81l0,1.23a4.26,4.26,0,0,1-2.57,3.88,4.33,4.33,0,0,1,2.42,4l-.05,1.6C246.18,198.73,243.88,200.89,239.89,200.77Zm3.51-6.93a3.31,3.31,0,0,0-6.59-.2l0,1.16a3.3,3.3,0,0,0,6.6.2Zm.19-9.09a3.21,3.21,0,1,0-6.41-.19l0,1a3.21,3.21,0,0,0,6.41.2Z"/><path class="cls-5" d="M261.34,200.42l-3.37.05c-.07-5.72,3-12.64,6.61-18.13l-9.21.12,0-2.89,12.54-.17,0,2.11C263.84,187.85,261.24,193.39,261.34,200.42Z"/><path class="cls-5" d="M283.65,200.14c-4,.24-6.58-2.07-6.8-5.68l-.59-9.85c-.21-3.61,2.09-6.21,6.08-6.44s6.54,2.06,6.76,5.67l.59,9.86C289.9,197.31,287.6,199.9,283.65,200.14ZM286,183.81a3.33,3.33,0,0,0-6.62.39l.61,10.3a3,3,0,0,0,3.51,2.81,3,3,0,0,0,3.11-3.21Z"/><path class="cls-5" d="M216.8,50.8c-3.78.3-6.49-1.9-6.75-5.1l-.07-1,3.14-.26,0,.33c.19,2.4,1.39,3.45,3.52,3.28A2.75,2.75,0,0,0,219.5,45c-.14-1.68-1-2.48-4.12-3.62-2.77-1-5.59-2.39-5.85-5.57-.24-3,1.75-5.63,5.56-5.93s6.39,1.87,6.65,5.11l.07.77-3.06.25,0-.33c-.15-1.83-1.2-3.31-3.51-3.13a2.43,2.43,0,0,0-2.53,2.71c.13,1.59,1,2.24,4.58,3.61s5.2,2.79,5.42,5.51C222.94,47.71,220.6,50.49,216.8,50.8Z"/><path class="cls-5" d="M231.87,49.33l-.88-20,3.19-.14.87,20Z"/><path class="cls-5" d="M255.24,48.78l-5.82-9.52-2.07-3.65.1,13.23-3,0-.15-20h2.46l5.67,9.69,2,3.66-.1-13.41,3,0,.15,20Z"/><path class="cls-5" d="M273,49.65c-4.48-.17-6.35-3.25-6.23-6.49l.32-8.53c.12-3.24,2.22-6.14,6.69-6s6.24,2.88,6.12,6.1l-.06,1.62L277,36.26l0-1.41a3,3,0,0,0-3.24-3.43c-2.25-.08-3.41,1.19-3.48,3L270,43.61c-.07,1.8,1,3.16,3.25,3.25a3,3,0,0,0,3.48-3.18l.05-1.41,2.89.1L279.57,44C279.45,47.21,277.52,49.82,273,49.65Z"/><path class="cls-5" d="M288.18,49.93l1.62-20,10.79.87-.23,2.85-7.61-.62-.43,5.25,5.49.44-.22,2.7L292.11,41l-.52,6.32,7.62.62L299,50.8Z"/></g></svg>