<svg xmlns="http://www.w3.org/2000/svg" width="234" height="25" viewBox="0 0 234 25">
    <g fill="none" fill-rule="nonzero">
        <path fill="#404058" d="M122 13h-13V0z"/>
        <path fill="#718BAA" d="M109 0h13v13z"/>
        <circle cx="112.5" cy="5.5" r="1" fill="#FFF"/>
        <circle cx="114.5" cy="5.5" r="1" fill="#FFF"/>
        <circle cx="116.5" cy="5.5" r="1" fill="#FFF"/>
        <circle cx="118.5" cy="5.5" r="1" fill="#FFF"/>
        <circle cx="112.5" cy="7.5" r="1" fill="#FFF"/>
        <circle cx="114.5" cy="7.5" r="1" fill="#FFF"/>
        <circle cx="116.5" cy="7.5" r="1" fill="#FFF"/>
        <circle cx="118.5" cy="7.5" r="1" fill="#FFF"/>
        <path fill="#353D50" d="M208.333 0h-2.911L199 9.975h2.15l1.415-2.045h8.925l1.36 2.07H215l-6.667-10zm-5.279 6.983l3.919-6.11 3.945 6.11h-7.864zM166.26 0c.021 0 10.545.025 10.545 0v1.045l-8.856 7.91L177 8.93V10h-11V8.98l8.726-7.935h-8.466V0zM2 0h1.993v9.772H13V11H2S2.027 0 2 0zm15.994 0v7.388s.136 1.667 2.128 1.667h5.921s1.938.124 1.938-1.766V.049H30v7.463s0 1.194-1.091 1.816c-1.092.622-3.275.672-3.275.672h-5.948s-1.856 0-2.811-.87c-.955-.871-.873-1.817-.873-1.817V0h1.992zm35 0v7.388s.136 1.667 2.128 1.667h5.921s1.938.124 1.938-1.766V.049H65v7.463s0 1.194-1.091 1.816c-1.092.622-3.275.672-3.275.672h-5.948s-1.856 0-2.811-.87c-.955-.871-.873-1.817-.873-1.817V0h1.992zM33.552.027h2.427L41 4.644 46.131 0h2.345l-5.931 5.323L49 10.891h-2.538l-5.434-4.916L35.372 11H33l6.372-5.677-5.82-5.296zM82.77 5.885c-.839-.299-1.733-.299-1.733-.299s1.76-.374 2.18-.698c.419-.324.782-1.073.782-2.07 0-.998-.559-1.696-1.453-2.195C81.653.125 78.858 0 78.858 0l-8.857.05v9.925h2.011v-3.99h6.707s1.676.05 2.319.574c.643.548.559 1.246.559 1.246V10h2.04V7.307c.056 0-.028-1.122-.866-1.422zm-4.388-.798h-6.37V1.022c0 .05 6.091.05 6.091.05s3.856-.449 3.856 2.02c0 2.444-3.577 1.995-3.577 1.995zM85 .05h2.177l5.242 4.812L97.796 0H100l-6.64 5.815V10h-1.962V5.89L85 .05zm57.195 5.273v-.135s1.343-.19 1.791-.788c.448-.598.476-1.358.476-1.928 0-.57-.308-2.2-3.638-2.39L131 0v11h10.075s1.764-.054 2.715-.733c.952-.68 1.26-1.548 1.204-2.635-.084-1.086-.616-2.2-2.8-2.309zm-9.18-4.155h7.08s2.324-.299 2.324 1.738c0 1.901-2.575 1.847-2.575 1.847h-6.857V1.168h.028zm7.193 8.61h-7.193V5.867h7.445s2.49-.272 2.49 1.955c0 2.472-2.742 1.956-2.742 1.956zm90.563-3.893c-.839-.299-1.733-.299-1.733-.299s1.76-.374 2.18-.698c.419-.324.782-1.073.782-2.07 0-.998-.559-1.696-1.453-2.195-.894-.498-3.689-.623-3.689-.623l-8.857.05v9.925h2.011v-3.99h6.707s1.676.05 2.319.574c.643.548.559 1.246.559 1.246V10h2.04V7.307c.056 0-.028-1.122-.866-1.422zm-4.388-.798h-6.37V1.022c0 .05 6.091.05 6.091.05s3.856-.449 3.856 2.02c0 2.444-3.577 1.995-3.577 1.995zM156.333 0h-2.911L147 9.975h2.15l1.415-2.045h8.925l1.36 2.07H163l-6.667-10zm-5.306 6.983l3.919-6.11 3.945 6.11h-7.864zM190.333 0h-2.911L181 9.975h2.15l1.415-2.045h8.925l1.36 2.07H197l-6.667-10zm-5.279 6.983l3.919-6.11 3.945 6.11h-7.864zM6.6 24l-.724-1.706H2.063L1.339 24H.011l3.337-7.56h1.307L7.96 24H6.599zm-4.061-2.84h2.851L3.964 17.8l-1.426 3.36zm13.344-4.72c1.9 0 2.991.94 2.991 2.581 0 1.707-1.09 2.7-2.991 2.7h-1.739V24h-1.274v-7.56h3.013zm-.054 4.136c1.166 0 1.825-.496 1.825-1.522 0-.994-.659-1.47-1.825-1.47h-1.685v2.992h1.685zm4.641-4.136h1.275v6.404h3.272V24H20.47v-7.56zM32.24 24l-.724-1.706h-3.812L26.979 24h-1.328l3.337-7.56h1.307L33.6 24h-1.361zm-4.061-2.84h2.851l-1.425-3.36-1.426 3.36zm12.04-2.657c-.551-.594-1.34-.961-2.106-.961-1.512 0-2.7 1.166-2.7 2.656 0 1.49 1.188 2.668 2.7 2.668.756 0 1.533-.346 2.106-.896l.756.842c-.767.756-1.858 1.242-2.927 1.242-2.214 0-3.931-1.674-3.931-3.845 0-2.149 1.738-3.801 3.974-3.801 1.07 0 2.138.442 2.873 1.166l-.745.929zm2.384-2.063h5.4v1.145h-4.126v2.052h3.694v1.134h-3.694v2.084h4.255V24h-5.53v-7.56zm10.028 0h1.372l1.836 6.145 1.825-6.145h1.253l1.836 6.145 1.825-6.145h1.317L61.367 24H60.06l-1.792-5.897L56.453 24h-1.317l-2.506-7.56zm12.482 0h1.275v3.283h4.007V16.44h1.274V24h-1.274v-3.132h-4.007V24h-1.275v-7.56zm8.875 0h5.4v1.145h-4.125v2.052h3.693v1.134h-3.693v2.084h4.255V24h-5.53v-7.56zM87.647 24H86.2l-1.383-2.29c-.108.011-.226.011-.345.011h-1.793V24h-1.274v-7.56h3.067c1.933 0 3.045.94 3.045 2.581 0 1.21-.561 2.063-1.566 2.452L87.647 24zm-4.968-3.424h1.793c1.166 0 1.836-.496 1.836-1.522 0-.994-.67-1.47-1.836-1.47h-1.793v2.992zm6.866-4.136h5.4v1.145H90.82v2.052h3.693v1.134H90.82v2.084h4.255V24h-5.53v-7.56zm10.99 0h1.253l4.05 5.432V16.44h1.252V24h-1.252l-4.029-5.422V24h-1.274v-7.56zm12.266-.032c2.257 0 4.007 1.652 4.007 3.812s-1.75 3.834-4.007 3.834c-2.257 0-4.007-1.674-4.007-3.834 0-2.17 1.75-3.812 4.007-3.812zm.01 1.144c-1.49 0-2.72 1.167-2.72 2.668 0 1.501 1.241 2.69 2.72 2.69 1.48 0 2.69-1.189 2.69-2.69s-1.21-2.668-2.69-2.668zm4.642-1.112h6.06v1.145h-2.398V24h-1.275v-6.415h-2.387V16.44zm7.482 0h1.275v3.283h4.006V16.44h1.275V24h-1.275v-3.132h-4.006V24h-1.275v-7.56zm8.875 0h1.275V24h-1.275v-7.56zm3.594 0h1.253l4.05 5.432V16.44h1.253V24h-1.253l-4.028-5.422V24h-1.275v-7.56zm14.06 5.95v-2.105h1.112v2.786c-.767.583-1.901.983-2.938.983-2.235 0-3.974-1.674-3.974-3.834s1.76-3.812 4.05-3.812c1.08 0 2.16.41 2.905 1.058l-.724.94a3.286 3.286 0 0 0-2.181-.864c-1.545 0-2.754 1.177-2.754 2.678 0 1.512 1.22 2.69 2.765 2.69.561 0 1.198-.195 1.738-.52zm6.82-5.95h1.274V24h-1.274v-7.56zm8.195 1.847c-.821-.497-1.642-.702-2.214-.702-.746 0-1.232.28-1.232.788 0 1.653 4.083.767 4.072 3.489 0 1.35-1.188 2.181-2.851 2.181a4.65 4.65 0 0 1-3.089-1.199l.55-1.101c.778.713 1.75 1.101 2.56 1.101.886 0 1.415-.334 1.415-.918 0-1.684-4.082-.745-4.082-3.434 0-1.296 1.112-2.106 2.754-2.106.983 0 1.944.313 2.646.778l-.53 1.123zm9.401-1.88c2.258 0 4.007 1.653 4.007 3.813s-1.75 3.834-4.007 3.834c-2.257 0-4.006-1.674-4.006-3.834 0-2.17 1.75-3.812 4.006-3.812zm.011 1.145c-1.49 0-2.721 1.167-2.721 2.668 0 1.501 1.242 2.69 2.721 2.69 1.48 0 2.69-1.189 2.69-2.69s-1.21-2.668-2.69-2.668zM187.823 24h-1.447l-1.383-2.29c-.108.011-.227.011-.345.011h-1.793V24h-1.275v-7.56h3.068c1.933 0 3.045.94 3.045 2.581 0 1.21-.561 2.063-1.566 2.452L187.823 24zm-4.968-3.424h1.793c1.166 0 1.836-.496 1.836-1.522 0-.994-.67-1.47-1.836-1.47h-1.793v2.992zm9.966-4.136c2.268 0 3.91 1.588 3.91 3.78 0 2.182-1.653 3.78-3.943 3.78h-3.067v-7.56h3.1zm.032 6.415c1.469 0 2.592-1.09 2.592-2.624 0-1.545-1.155-2.646-2.646-2.646h-1.803v5.27h1.857zm5.57-6.415h1.275V24h-1.275v-7.56zm3.594 0h1.253l4.05 5.432V16.44h1.253V24h-1.253l-4.028-5.422V24h-1.275v-7.56zM216.508 24l-.723-1.706h-3.813L211.25 24h-1.329l3.338-7.56h1.306L217.87 24h-1.36zm-4.06-2.84h2.85l-1.425-3.36-1.425 3.36zm13 2.84h-1.447l-1.382-2.29c-.108.011-.227.011-.346.011h-1.793V24h-1.274v-7.56h3.067c1.933 0 3.046.94 3.046 2.581 0 1.21-.562 2.063-1.566 2.452L225.448 24zm-4.968-3.424h1.793c1.167 0 1.836-.496 1.836-1.522 0-.994-.67-1.47-1.836-1.47h-1.793v2.992zm12.655-4.136l-2.775 5.044V24h-1.264v-2.473l-2.819-5.087h1.286l2.16 3.683 2.116-3.683h1.296z"/>
    </g>
</svg>
